<svg id="Calque_1" data-name="Calque 1" xmlns="http://www.w3.org/2000/svg" xmlns:xlink="http://www.w3.org/1999/xlink" viewBox="0 0 480.31 327.81"><defs><symbol id="Nouveau_symbole" data-name="Nouveau symbole" viewBox="0 0 480.31 327.81"><path d="M121.1,64.17c-6.38,0-11.69.12-17,0-9.46-.26-14.57-4.23-14.9-11.34C88.85,45,95.08,37.9,103.62,37.1c2.79-.27,4.37-1,5.83-3.46,2.8-4.74,7.47-6.3,12.82-6.24,9.33.11,18.68-.19,28,.29,17.85.91,34.27-3.82,50-11.73q4.47-2.25,9-4.38c9.43-4.43,18.68-4.26,27.66,1.28,4,2.45,7.89,5,11.86,7.41,9,5.51,18.57,6.73,28.29,3a45.89,45.89,0,0,1,34.08,0c11.88,4.5,24.29,5.07,36.8,4.11.91-16.58,5.22-23.84,15.65-26.7a20.61,20.61,0,0,1,22.3,8.57c5.94,8.77,5,16.37-3.51,27.67,2.23.36,4.28.54,6.26,1,7.47,1.83,11.89,7.84,11.12,15-.75,6.93-5.46,10.84-13.56,11.1a124.09,124.09,0,0,1-12.5,0c-3.8-.26-5.19.74-5.17,4.91.11,29.33-.05,58.66-.13,88,0,1.46-.16,2.92-.23,4.21-.6.32-.87.59-1.16.61-10.19.73-10.14.73-10.22-9.25-.06-6.65,1.65-14.27-1-19.67s-9.72-8.71-15-12.7q-35.36-26.57-70.91-52.88a16.9,16.9,0,0,0-9.06-2.95c-10.83-.28-21.67-.17-32.49.24a16.36,16.36,0,0,0-8.71,2.81c-27.69,20.55-55.19,41.36-82.83,62a8.51,8.51,0,0,0-3.91,7.91c.26,8,.08,15.95.08,24.31H121.1Zm235.33.43H285.71l70.72,53.22ZM133.3,117.53l70.06-53H133.3Z"/><path d="M7.06,271.17H0V200.3c4.85-1.42,7.91-.69,10.19,4.27,7.72,16.79,15.93,33.36,24,50,.35.72.82,1.38,1.65,2.76a41.2,41.2,0,0,0,2.51-3.89c7.76-16,15.64-32,23.14-48.19,2.21-4.75,5.06-6.68,10.55-5v70.78l-8.23.48V217l-1-.27-26.88,55.3-1.46.06L8.25,218l-1.19.27Z"/><path d="M318.82,271.23h-7.27c0-8.44,0-16.57,0-24.7a40.76,40.76,0,0,0-.51-6.45c-1-5.85-3.86-8.9-8.28-9.1a10.76,10.76,0,0,0-11,8.43c-.89,4.69-.87,9.58-1,14.39-.15,5.64,0,11.3,0,17.35H283V246.56c0-.83,0-1.66,0-2.5-.09-8.56-3-12.72-9.19-13-5.87-.25-11,5.29-11.23,12.91-.29,9-.07,17.93-.07,27.26h-7.71V226.68h6.69c.28,1.68.55,3.22.83,4.87,13.51-9,18.39-8.71,26.95,1.55,2.43-1.95,4.66-4.23,7.31-5.8,10.06-6,21.57-.1,22.14,11.56C319.23,249.47,318.82,260.12,318.82,271.23Z"/><path d="M339.24,265v27.35h-8.05v-65c6.28-1.81,6.36-1.74,8.07,6.51,5.14-5.64,11-10.22,18.66-8.4,4.93,1.18,10.25,3.59,13.82,7.06,8.44,8.21,8,23.68.06,32.4C362.91,274.66,353,274.86,339.24,265Zm-.56-14.82a28.89,28.89,0,0,0,.85,4.93,16.46,16.46,0,0,0,14.26,11.51,14.25,14.25,0,0,0,13.57-8.47c3-6.94,3.15-14.09-1.13-20.5a15.76,15.76,0,0,0-7.66-5.79C347.81,228.38,338.67,236.35,338.68,250.21Z"/><path d="M236.39,231.52v5.83h-25.1c0,9-.14,17.28.19,25.55,0,1,2.73,2.53,4.22,2.56,9.42.24,18.85.12,28.6.12.74,3.44-.14,6-5.4,6-12.11-.18-24.23-.06-36.37-.06V200h39c.12,1.88.25,3.78.36,5.28H217.46c-6.38,0-6.36,0-6.35,6.63,0,5,.1,10-.12,15-.16,3.39,1,4.8,4.51,4.71C222.28,231.39,229.08,231.52,236.39,231.52Z"/><path d="M91.51,249.58c.13,7.39,2.74,12.44,8.74,15.34,6.93,3.35,14.25,1.62,22.07-5.07,3.35,1.67,3.74,3.5.72,6.17-9.63,8.53-24.92,8.4-33.63-.41-8.48-8.58-8.43-25.19.44-34.12,6.49-6.53,14.53-7.83,23.09-5s12.48,9.41,13.54,18.06c.44,3.58-.69,5.19-4.56,5.09-8.15-.21-16.31-.09-24.47-.1C95.65,249.57,93.85,249.58,91.51,249.58Zm26.76-5.47c-.56-8.87-5.57-13.81-13.2-13.7-7.41.11-12.49,5.48-12.72,13.7Z"/><path d="M480.05,249.55H444.69c.87,6.58,3.26,11.52,8.5,14.83,6.43,4.06,12.51,2.9,23.38-4.3,2.72,1.55,3.21,3.13.65,5.62-7.44,7.27-21.08,8.9-29.66,3.34-9.46-6.13-13.14-18.77-8.78-30.18,3.64-9.53,14.42-15.17,25.33-13.25S481.74,237.18,480.05,249.55Zm-7.46-5.49c-.68-9.37-6-14.16-14.36-13.62a12.86,12.86,0,0,0-12.13,13.62Z"/><path d="M143.61,271.31h-7.49V199.42h7.49Z"/><path d="M416,271.19h-7.87V227.38c6.34-2.32,7-1.86,8.06,6.38,4.24-5.91,9.32-9.35,16.94-7.59v6.43a18.78,18.78,0,0,1-2.56.15c-9.34-.7-14.16,3.29-14.5,12.7C415.8,253.9,416,262.37,416,271.19Z"/><path d="M387.47,227h7.69v44.07l-7.69.54Z"/><path d="M165,271.22h-7.61v-44.4H165Z"/><path d="M306.76,313.42c2.06,1.4,3.31,4.67,1.88,8.59s-5.08,5-8.9,5.11c-3.31.11-6.62,0-10.29,0V299c6.31-.12,12.83-2,17.06,3.46C308.06,304.45,306.76,308.66,306.76,313.42Zm-14,5.78c-.8,3.46.54,5.16,4.41,4.87s8.07-.22,8.13-5.18c.05-4.74-4.07-4.65-7.68-4.95C293.65,313.61,292,315,292.76,319.2Zm4.66-17.15c-3.2-.44-5.14.4-4.93,4.14.15,2.57-.22,5.28,3.66,4.7,3.12-.47,7.69,1.16,7.91-4.2C304.25,302.21,300.52,302.31,297.42,302.05Z"/><path d="M275.32,313.09a15,15,0,0,1-15.05,14.72c-8-.16-14.14-6.62-14.17-14.9A14.92,14.92,0,0,1,261,298.05C268.45,298.14,275.4,305.42,275.32,313.09Zm-3.73,0a11.38,11.38,0,0,0-10.93-11.31,11,11,0,0,0-10.88,10.68,11.69,11.69,0,0,0,11.39,12C266.23,324.55,271.49,318.81,271.59,313.1Z"/><path d="M218.34,320.6l-9.66-12.84c-.41,7.17-.76,13.07-1.1,19l-2.2,0c-1.57-9-.63-18.16-.76-27.25l1.37-.59c3.95,5.17,7.9,10.34,12.29,16.07,4.1-5.53,8.11-10.91,12.11-16.3l1,.57v27.54l-2,.19c-.27-2.94-.65-5.87-.77-8.82-.14-3.12,0-6.26-1-9.88Z"/><path d="M118.25,326.8c-.18-2.34-.49-4.69-.51-7-.07-5.65.13-11.31,0-16.95-.08-3.07,1.11-4.22,4.09-4,2.81.22,5.69-.08,8.44.43,5,.94,7.7,4.36,7.56,9s-3,7.73-8.11,8.54a2.12,2.12,0,0,1-.5.05c-6-.84-9.13,1.2-8.1,7.77.11.69-.79,1.53-1.22,2.31Zm3.1-19.77c0,6.77,0,6.81,4.9,6.79s7.93-2.36,7.8-6.24-2.87-5.28-8.44-5.57C120.79,301.75,121.2,304.7,121.35,307Z"/><path d="M83.58,321.5c2.14.62,3.55,1.08,5,1.42,2.08.48,4.35,1.55,6.23,1.1s4.2-2.22,4.67-3.89c.35-1.2-1.72-3.63-3.28-4.68-1.86-1.26-4.36-1.52-6.51-2.41-3.4-1.39-5.52-3.8-5.06-7.7.48-4.08,3.31-6.31,7-6.63,2.85-.25,5.85.6,8.71,1.29.75.19,1.22,1.58,1.81,2.42a9.49,9.49,0,0,1-3,.48c-1.94-.3-4-1.67-5.69-1.22-1.92.51-3.44,2.51-5.13,3.86,1.25,1.52,2.22,3.5,3.81,4.46,2.24,1.34,5.3,1.44,7.34,3s4,4,4,6.12a9.71,9.71,0,0,1-3.74,6.78C94.59,329.62,86.8,327.64,83.58,321.5Z"/><path d="M171.16,327.58c-4.23-2-5.06-8.24-12.06-7.87-6.29.34-8.18,4.6-11.49,8.07l-1.55-1.44,13.27-28.83c4.87,10.58,9,19.67,13.24,28.76Zm-17-10.65h10.12l-5.15-11.84C157.25,309.66,155.8,313.09,154.19,316.93Z"/><path d="M389.2,313.82l-12,.67v9.09l14,.91v2c-5.62,1-11.36.27-17.64.42,0-8.89,0-17.47.05-26,0-.64.81-1.81,1.26-1.82,5.3-.13,10.6-.08,15.9-.08,0,.8.07,1.6.1,2.4l-13.75.88v8.26l12.33,1.12Z"/><path d="M359.64,326.26H342.89c0-8.24-.05-16.5.08-24.77,0-.82,1.13-1.62,1.73-2.44.58.84,1.62,1.66,1.65,2.51.15,5,0,10,.06,15,0,8.85-.14,7.14,7.12,7.35,2.08.06,4.16.47,6.23.73Z"/><path d="M100.72,215.77c3.43-6,6.86-11.93,10.4-18.07l8.19,3.62-16.79,16.12Z"/><path d="M167.18,210.67c-2.13,1.32-4.31,3.74-6.35,3.62-1.83-.11-4.56-2.78-5-4.73a4.4,4.4,0,0,1,5.1-5.2c2.23.29,4.21,2.56,6.31,3.94Z"/><path d="M392.49,203.49c1.38,2,3.62,3.91,3.95,6.09.47,3.11-2,5.79-5.08,5-2.11-.5-4.82-3.19-5.09-5.2-.25-1.77,2.5-4,3.93-6Z"/><path d="M324.47,327.08a14.11,14.11,0,0,1-1-3.64c-.07-7-.07-14,.14-21,0-1.13,1.22-2.22,1.87-3.34.52,1.17,1.48,2.33,1.5,3.51.09,6.48,0,13-.12,19.47,0,1.56-.27,3.11-.41,4.67Z"/></symbol></defs><title>logo1</title><use width="480.31" height="327.81" xlink:href="#Nouveau_symbole"/></svg>