<svg xmlns="http://www.w3.org/2000/svg" viewBox="0 0 300.33 162.02"><title>Fichier 1</title><g id="Calque_2" data-name="Calque 2"><g id="Calque_1-2" data-name="Calque 1"><path d="M30.84,64.17c-6.16,0-11.3.12-16.42,0C5.27,63.89.33,59.92,0,52.81A15.31,15.31,0,0,1,13.94,37.1c2.7-.27,4.23-1,5.64-3.46,2.71-4.74,7.22-6.3,12.4-6.24,9,.11,18.06-.19,27.06.29C76.3,28.6,92.17,23.87,107.38,16q4.32-2.25,8.69-4.38c9.12-4.43,18.06-4.26,26.74,1.28,3.83,2.45,7.63,5,11.47,7.41,8.65,5.51,17.95,6.73,27.34,3a43,43,0,0,1,33,0c11.48,4.5,23.47,5.07,35.57,4.11.88-16.58,5-23.84,15.13-26.7,8-2.27,16.74,1.21,21.56,8.57,5.74,8.77,4.87,16.37-3.4,27.67,2.16.36,4.14.54,6.06,1,7.22,1.83,11.49,7.84,10.75,15-.73,6.93-5.28,10.84-13.12,11.1a115.7,115.7,0,0,1-12.07,0c-3.68-.26-5,.74-5,4.91.1,29.33-.05,58.66-.14,88,0,1.46-.15,2.92-.22,4.21-.57.32-.83.59-1.11.61-9.86.73-9.8.73-9.89-9.25-.06-6.65,1.6-14.27-1-19.67s-9.4-8.71-14.54-12.7Q209,93.56,174.62,67.24a16,16,0,0,0-8.77-2.95c-10.46-.28-20.94-.17-31.41.24A15.48,15.48,0,0,0,126,67.34C99.26,87.89,72.67,108.7,46,129.34a8.6,8.6,0,0,0-3.79,7.91c.25,8,.08,15.95.08,24.31H30.84Zm227.5.43H190l68.36,53.22ZM42.64,117.53l67.73-53H42.64Z"/></g></g></svg>